<svg width="96" height="96" viewBox="0 0 480 480" fill="none" xmlns="http://www.w3.org/2000/svg">
<path d="M217.455 234.931C217.455 264.183 204.735 287.341 179.295 304.404C153.856 321.468 123.015 330 86.7727 330C62.3788 330 42.1667 324.668 26.1364 314.003C10.4545 303.033 1.74242 293.74 0 286.122C3.83333 276.066 12.0227 264.792 24.5682 252.299C37.1136 239.806 48.4394 232.188 58.5455 229.446C76.3182 239.501 92.8712 261.898 108.205 296.634C130.856 296.025 142.182 285.208 142.182 264.183C142.182 252.604 136.78 238.435 125.977 221.676C115.523 204.612 104.023 188.767 91.4773 174.141C78.9318 159.211 67.2576 142.604 56.4545 124.321C46 105.734 40.7727 89.2798 40.7727 74.9585C40.7727 51.8006 51.4015 33.518 72.6591 20.1108C94.2651 6.7036 118.485 0 145.318 0C172.152 0 192.886 5.0277 207.523 15.0831C222.508 25.1385 230 36.5651 230 49.3629C230 62.1607 224.424 75.2632 213.273 88.6704C202.121 102.078 190.97 112.742 179.818 120.665L163.091 132.548C167.273 137.424 172.326 143.67 178.25 151.288C184.174 158.906 192.189 171.856 202.295 190.139C212.402 208.421 217.455 223.352 217.455 234.931ZM177.205 85.0138C182.083 81.0526 186.439 76.3297 190.273 70.8449C194.106 65.0554 196.023 59.1136 196.023 53.0194C196.023 46.6205 191.841 41.2881 183.477 37.0222C175.114 32.7562 165.008 30.6233 153.159 30.6233C141.659 30.6233 131.902 33.0609 123.886 37.9363C116.22 42.5069 112.386 48.144 112.386 54.8476C112.386 61.2465 114.826 68.8643 119.705 77.7008C124.932 86.2327 129.985 93.3934 134.864 99.1828L142.705 107.867C146.189 106.343 151.591 103.144 158.909 98.2687C166.576 93.3934 172.674 88.9751 177.205 85.0138Z" fill="#F3980E"/>
<path d="M349.564 349.269C349.564 376.571 336.955 398.185 311.736 414.111C286.518 430.037 255.945 438 220.018 438C195.836 438 175.8 433.023 159.909 423.069C144.364 412.831 135.727 404.157 134 397.047C137.8 387.662 145.918 377.139 158.355 365.479C170.791 353.819 182.018 346.709 192.036 344.15C209.655 353.535 226.064 374.438 241.264 406.859C263.718 406.29 274.945 396.194 274.945 376.571C274.945 365.764 269.591 352.539 258.882 336.898C248.518 320.971 237.118 306.183 224.682 292.532C212.245 278.597 200.673 263.097 189.964 246.033C179.6 228.685 174.418 213.328 174.418 199.961C174.418 178.347 184.955 161.283 206.027 148.77C227.445 136.257 251.455 130 278.055 130C304.655 130 325.209 134.693 339.718 144.078C354.573 153.463 362 164.127 362 176.072C362 188.017 356.473 200.246 345.418 212.759C334.364 225.272 323.309 235.226 312.255 242.621L295.673 253.712C299.818 258.262 304.827 264.092 310.7 271.202C316.573 278.312 324.518 290.399 334.536 307.463C344.555 324.526 349.564 338.462 349.564 349.269ZM309.664 209.346C314.5 205.649 318.818 201.241 322.618 196.122C326.418 190.718 328.318 185.173 328.318 179.485C328.318 173.512 324.173 168.536 315.882 164.554C307.591 160.572 297.573 158.582 285.827 158.582C274.427 158.582 264.755 160.857 256.809 165.407C249.209 169.673 245.409 174.934 245.409 181.191C245.409 187.163 247.827 194.273 252.664 202.521C257.845 210.484 262.855 217.167 267.691 222.571L275.464 230.676C278.918 229.254 284.273 226.268 291.527 221.717C299.127 217.167 305.173 213.043 309.664 209.346Z" fill="#4B9E3E"/>
</svg>
